<svg width="27" height="26" viewBox="0 0 27 26" fill="none" xmlns="http://www.w3.org/2000/svg">
<path d="M7.59627 10.2143C6.66299 10.2143 5.90898 11.0442 5.90898 12.0714C5.90898 13.0987 6.66299 13.9286 7.59627 13.9286C8.52954 13.9286 9.28355 13.0987 9.28355 12.0714C9.28355 11.0442 8.52954 10.2143 7.59627 10.2143ZM13.5018 10.2143C12.5685 10.2143 11.8145 11.0442 11.8145 12.0714C11.8145 13.0987 12.5685 13.9286 13.5018 13.9286C14.435 13.9286 15.189 13.0987 15.189 12.0714C15.189 11.0442 14.435 10.2143 13.5018 10.2143ZM19.4072 10.2143C18.474 10.2143 17.72 11.0442 17.72 12.0714C17.72 13.0987 18.474 13.9286 19.4072 13.9286C20.3405 13.9286 21.0945 13.0987 21.0945 12.0714C21.0945 11.0442 20.3405 10.2143 19.4072 10.2143ZM13.5018 0C6.04608 0 0.00349943 5.40312 0.00349943 12.0714C0.00349943 14.8339 1.05278 17.3643 2.79279 19.4013C2.00715 21.6879 0.372592 23.6263 0.346228 23.6496C-0.00177332 24.0558 -0.0966829 24.6478 0.103682 25.1585C0.304046 25.6692 0.762776 26 1.26896 26C4.5117 26 7.06899 24.5085 8.60336 23.3129C10.1272 23.8411 11.7723 24.1429 13.5018 24.1429C20.9574 24.1429 27 18.7397 27 12.0714C27 5.40312 20.9574 0 13.5018 0ZM13.5018 21.3571C12.0939 21.3571 10.7019 21.1192 9.36791 20.6549L8.171 20.2371L7.14281 21.0379C6.3888 21.6241 5.35535 22.2799 4.11098 22.721C4.49589 22.0187 4.87025 21.2295 5.16025 20.3879L5.71917 18.7571L4.63298 17.492C3.67861 16.3719 2.53442 14.5205 2.53442 12.0714C2.53442 6.95268 7.4539 2.78571 13.5018 2.78571C19.5496 2.78571 24.4691 6.95268 24.4691 12.0714C24.4691 17.1902 19.5496 21.3571 13.5018 21.3571Z" fill="black"/>
</svg>
