<svg width="34" height="32" viewBox="0 0 34 32" fill="none" xmlns="http://www.w3.org/2000/svg">
<path d="M31.5714 12.5714H20.6429V2.28571C20.6429 1.02357 19.5553 0 18.2143 0H15.7857C14.4447 0 13.3571 1.02357 13.3571 2.28571V12.5714H2.42857C1.08754 12.5714 0 13.595 0 14.8571V17.1429C0 18.405 1.08754 19.4286 2.42857 19.4286H13.3571V29.7143C13.3571 30.9764 14.4447 32 15.7857 32H18.2143C19.5553 32 20.6429 30.9764 20.6429 29.7143V19.4286H31.5714C32.9125 19.4286 34 18.405 34 17.1429V14.8571C34 13.595 32.9125 12.5714 31.5714 12.5714Z" fill="black"/>
</svg>
