<svg width="19" height="22" viewBox="0 0 19 22" fill="none" xmlns="http://www.w3.org/2000/svg">
<path d="M0 6.07678V5.20885C0 4.48983 0.397883 3.90696 0.88871 3.90696H14.2194V1.30319C14.2194 0.144126 15.1784 -0.434943 15.7365 0.382589L18.6989 4.72222C19.0459 5.23066 19.0459 6.05497 18.6989 6.56336L15.7365 10.903C15.1805 11.7173 14.2194 11.1463 14.2194 9.98244V7.37866H0.88871C0.397883 7.37866 0 6.7958 0 6.07678ZM18.0704 14.3221H4.73978V11.7183C4.73978 10.5621 3.78213 9.9781 3.22265 10.7977L0.260281 15.1373C-0.0867603 15.6458 -0.0867603 16.4701 0.260281 16.9785L3.22265 21.3181C3.77913 22.1332 4.73978 21.5604 4.73978 20.3975V17.7938H18.0704C18.5613 17.7938 18.9591 17.2109 18.9591 16.4919V15.624C18.9591 14.9049 18.5613 14.3221 18.0704 14.3221Z" fill="black"/>
</svg>
