<svg width="17" height="28" viewBox="0 0 17 28" fill="none" xmlns="http://www.w3.org/2000/svg">
<path d="M4.62811 24.581C4.62859 24.9213 4.7182 25.2545 4.88635 25.538L5.70974 26.9279C5.85039 27.1655 6.04117 27.3603 6.2651 27.4951C6.48903 27.6299 6.73916 27.7004 6.99323 27.7004H9.96638C10.2205 27.7004 10.4706 27.6299 10.6945 27.4951C10.9184 27.3603 11.1092 27.1655 11.2499 26.9279L12.0733 25.538C12.2413 25.2545 12.3312 24.9216 12.3315 24.581L12.3334 22.5062H4.6257L4.62811 24.581ZM0 9.52187C0 11.9223 0.792551 14.1124 2.09869 15.7857C2.89462 16.8055 4.13957 18.936 4.61414 20.7333C4.61607 20.7473 4.61751 20.7614 4.61944 20.7755H12.3397C12.3416 20.7614 12.3431 20.7479 12.345 20.7333C12.8196 18.936 14.0645 16.8055 14.8604 15.7857C16.1666 14.1124 16.9591 11.9223 16.9591 9.52187C16.9591 4.25295 13.1486 -0.0161843 8.45307 4.61256e-05C3.53829 0.0168175 0 4.48883 0 9.52187ZM8.47957 5.19377C6.35438 5.19377 4.62522 7.13546 4.62522 9.52187C4.62522 10.0001 4.28025 10.3875 3.85435 10.3875C3.42844 10.3875 3.08348 10.0001 3.08348 9.52187C3.08348 6.18058 5.50401 3.46253 8.47957 3.46253C8.90547 3.46253 9.25044 3.84989 9.25044 4.32815C9.25044 4.8064 8.90547 5.19377 8.47957 5.19377Z" fill="#DDC12D"/>
</svg>
