<svg width="98" height="89" viewBox="0 0 98 89" fill="none" xmlns="http://www.w3.org/2000/svg">
<circle cx="33" cy="43" r="30" fill="#4751E9"/>
<path d="M13 42.5V51.25C13 52.46 13.8937 53.4375 15 53.4375H17V40.3125H15C13.8937 40.3125 13 41.29 13 42.5ZM42 31.5625H35V27.1875C35 25.9775 34.1063 25 33 25C31.8937 25 31 25.9775 31 27.1875V31.5625H24C21.2375 31.5625 19 34.0098 19 37.0312V55.625C19 58.0381 20.7937 60 23 60H43C45.2062 60 47 58.0381 47 55.625V37.0312C47 34.0098 44.7625 31.5625 42 31.5625ZM29 53.4375H25V51.25H29V53.4375ZM27 45.2344C25.6187 45.2344 24.5 44.0107 24.5 42.5C24.5 40.9893 25.6187 39.7656 27 39.7656C28.3813 39.7656 29.5 40.9893 29.5 42.5C29.5 44.0107 28.3813 45.2344 27 45.2344ZM35 53.4375H31V51.25H35V53.4375ZM41 53.4375H37V51.25H41V53.4375ZM39 45.2344C37.6187 45.2344 36.5 44.0107 36.5 42.5C36.5 40.9893 37.6187 39.7656 39 39.7656C40.3813 39.7656 41.5 40.9893 41.5 42.5C41.5 44.0107 40.3813 45.2344 39 45.2344ZM51 40.3125H49V53.4375H51C52.1063 53.4375 53 52.46 53 51.25V42.5C53 41.29 52.1063 40.3125 51 40.3125Z" fill="white" fill-opacity="0.82"/>
</svg>
