<svg width="20" height="20" viewBox="0 0 20 20" fill="none" xmlns="http://www.w3.org/2000/svg">
<path d="M5.83333 9.16667H12.1583L9.40833 6.425C9.25141 6.26808 9.16326 6.05525 9.16326 5.83333C9.16326 5.61141 9.25141 5.39859 9.40833 5.24167C9.56525 5.08475 9.77808 4.99659 10 4.99659C10.2219 4.99659 10.4347 5.08475 10.5917 5.24167L14.7583 9.40833C14.8342 9.48759 14.8937 9.58104 14.9333 9.68333C15.0167 9.88622 15.0167 10.1138 14.9333 10.3167C14.8937 10.419 14.8342 10.5124 14.7583 10.5917L10.5917 14.7583C10.5142 14.8364 10.422 14.8984 10.3205 14.9407C10.2189 14.9831 10.11 15.0048 10 15.0048C9.88999 15.0048 9.78107 14.9831 9.67952 14.9407C9.57797 14.8984 9.4858 14.8364 9.40833 14.7583C9.33023 14.6809 9.26823 14.5887 9.22592 14.4871C9.18362 14.3856 9.16184 14.2767 9.16184 14.1667C9.16184 14.0567 9.18362 13.9477 9.22592 13.8462C9.26823 13.7446 9.33023 13.6525 9.40833 13.575L12.1583 10.8333H5.83333C5.61232 10.8333 5.40036 10.7455 5.24408 10.5893C5.0878 10.433 5 10.221 5 10C5 9.77899 5.0878 9.56702 5.24408 9.41074C5.40036 9.25446 5.61232 9.16667 5.83333 9.16667Z" fill="#F5F5F5"/>
</svg>
