<svg width="38" height="39" viewBox="0 0 38 39" fill="none" xmlns="http://www.w3.org/2000/svg">
<path d="M19.0042 9.50089C13.6126 9.50089 9.26369 13.9652 9.26369 19.5C9.26369 25.0348 13.6126 29.4991 19.0042 29.4991C24.3959 29.4991 28.7448 25.0348 28.7448 19.5C28.7448 13.9652 24.3959 9.50089 19.0042 9.50089ZM19.0042 26.0007C15.52 26.0007 12.6716 23.0854 12.6716 19.5C12.6716 15.9146 15.5115 12.9993 19.0042 12.9993C22.4969 12.9993 25.3369 15.9146 25.3369 19.5C25.3369 23.0854 22.4885 26.0007 19.0042 26.0007ZM31.4152 9.09188C31.4152 10.3885 30.3979 11.4241 29.1432 11.4241C27.8801 11.4241 26.8713 10.3798 26.8713 9.09188C26.8713 7.80392 27.8886 6.75962 29.1432 6.75962C30.3979 6.75962 31.4152 7.80392 31.4152 9.09188ZM37.8665 11.4589C37.7224 8.33477 37.0272 5.56739 34.7977 3.28735C32.5766 1.00731 29.8808 0.293707 26.8374 0.137063C23.7007 -0.0456878 14.2993 -0.0456878 11.1626 0.137063C8.12772 0.285005 5.4319 0.998605 3.20234 3.27865C0.972783 5.55869 0.286113 8.32606 0.133519 11.4502C-0.0445064 14.6701 -0.0445064 24.3212 0.133519 27.5411C0.277635 30.6652 0.972783 33.4326 3.20234 35.7127C5.4319 37.9927 8.11924 38.7063 11.1626 38.8629C14.2993 39.0457 23.7007 39.0457 26.8374 38.8629C29.8808 38.715 32.5766 38.0014 34.7977 35.7127C37.0187 33.4326 37.7139 30.6652 37.8665 27.5411C38.0445 24.3212 38.0445 14.6788 37.8665 11.4589ZM33.8143 30.9959C33.153 32.7016 31.873 34.0157 30.2029 34.7032C27.7021 35.7214 21.7679 35.4864 19.0042 35.4864C16.2406 35.4864 10.2979 35.7127 7.80558 34.7032C6.144 34.0244 4.86392 32.7103 4.1942 30.9959C3.20234 28.4287 3.43123 22.337 3.43123 19.5C3.43123 16.663 3.21082 10.5626 4.1942 8.00407C4.85544 6.29839 6.13553 4.98432 7.80558 4.29683C10.3064 3.27865 16.2406 3.51361 19.0042 3.51361C21.7679 3.51361 27.7105 3.28735 30.2029 4.29683C31.8645 4.97562 33.1446 6.28969 33.8143 8.00407C34.8061 10.5713 34.5772 16.663 34.5772 19.5C34.5772 22.337 34.8061 28.4374 33.8143 30.9959Z" fill="black"/>
</svg>
