<svg width="160" height="120" viewBox="0 0 160 120" fill="none" xmlns="http://www.w3.org/2000/svg">
<path d="M80 0C35.8125 0 0 24.9375 0 55.7143C0 69 6.6875 81.1607 17.8125 90.7232C13.9062 104.223 0.84375 116.25 0.6875 116.384C0 117 -0.1875 117.911 0.21875 118.714C0.625 119.518 1.5 120 2.5 120C23.2188 120 38.75 111.482 46.4375 106.232C56.6563 109.527 68 111.429 80 111.429C124.188 111.429 160 86.4911 160 55.7143C160 24.9375 124.188 0 80 0ZM40 64.2857C34.4688 64.2857 30 60.4554 30 55.7143C30 50.9732 34.4688 47.1429 40 47.1429C45.5312 47.1429 50 50.9732 50 55.7143C50 60.4554 45.5312 64.2857 40 64.2857ZM80 64.2857C74.4688 64.2857 70 60.4554 70 55.7143C70 50.9732 74.4688 47.1429 80 47.1429C85.5312 47.1429 90 50.9732 90 55.7143C90 60.4554 85.5312 64.2857 80 64.2857ZM120 64.2857C114.469 64.2857 110 60.4554 110 55.7143C110 50.9732 114.469 47.1429 120 47.1429C125.531 47.1429 130 50.9732 130 55.7143C130 60.4554 125.531 64.2857 120 64.2857Z" fill="#B0C4EC"/>
</svg>
