<svg width="39" height="36" viewBox="0 0 39 36" fill="none" xmlns="http://www.w3.org/2000/svg">
<path d="M38.1851 5.63278C37.7365 3.41559 36.415 1.66941 34.737 1.07681C31.6956 0 19.5 0 19.5 0C19.5 0 7.30442 0 4.26295 1.07681C2.58501 1.6695 1.26348 3.41559 0.814943 5.63278C0 9.65156 0 18.0364 0 18.0364C0 18.0364 0 26.4212 0.814943 30.44C1.26348 32.6572 2.58501 34.3306 4.26295 34.9232C7.30442 36 19.5 36 19.5 36C19.5 36 31.6956 36 34.737 34.9232C36.415 34.3306 37.7365 32.6572 38.1851 30.44C39 26.4212 39 18.0364 39 18.0364C39 18.0364 39 9.65156 38.1851 5.63278ZM15.5113 25.6492V10.4236L25.7045 18.0366L15.5113 25.6492Z" fill="black"/>
</svg>
