<svg width="35" height="39" viewBox="0 0 35 39" fill="none" xmlns="http://www.w3.org/2000/svg">
<path d="M31.25 0H3.75C1.67969 0 0 1.87165 0 4.17857V34.8214C0 37.1283 1.67969 39 3.75 39H31.25C33.3203 39 35 37.1283 35 34.8214V4.17857C35 1.87165 33.3203 0 31.25 0ZM27.4297 13.8241C27.4453 14.0679 27.4453 14.3203 27.4453 14.5641C27.4453 22.1116 22.2891 30.8083 12.8672 30.8083C9.96094 30.8083 7.26562 29.8681 5 28.2489C5.41406 28.3011 5.8125 28.3185 6.23438 28.3185C8.63281 28.3185 10.8359 27.4132 12.5938 25.881C10.3438 25.8288 8.45312 24.1835 7.80469 21.9201C8.59375 22.0507 9.30469 22.0507 10.1172 21.8156C7.77344 21.2846 6.01562 18.9864 6.01562 16.2094V16.1397C6.69531 16.5663 7.49219 16.8275 8.32812 16.8623C7.62533 16.3414 7.0492 15.6347 6.65115 14.8053C6.25309 13.976 6.04549 13.0497 6.04688 12.1092C6.04688 11.0471 6.29688 10.0721 6.74219 9.22768C9.26562 12.6924 13.0547 14.9558 17.3047 15.1996C16.5781 11.3257 19.1797 8.18304 22.3047 8.18304C23.7812 8.18304 25.1094 8.87076 26.0469 9.98504C27.2031 9.74129 28.3125 9.2625 29.2969 8.6096C28.9141 9.93281 28.1094 11.0471 27.0469 11.7522C28.0781 11.6304 29.0781 11.3083 30 10.8643C29.3047 12.0047 28.4297 13.0145 27.4297 13.8241Z" fill="black"/>
</svg>
