<svg width="43" height="39" viewBox="0 0 43 39" fill="none" xmlns="http://www.w3.org/2000/svg">
<path d="M39.9286 0H3.06183C1.37254 0 0 1.26228 0 2.81183V36.1882C0 37.7377 1.37254 39 3.06183 39H39.9286C41.6179 39 43 37.7377 43 36.1882V2.81183C43 1.26228 41.6179 0 39.9286 0ZM12.996 33.4286H6.62277V14.8165H13.0056V33.4286H12.996ZM9.80937 12.2746C7.76496 12.2746 6.11406 10.7685 6.11406 8.92299C6.11406 7.07746 7.76496 5.57143 9.80937 5.57143C11.8442 5.57143 13.5047 7.07746 13.5047 8.92299C13.5047 10.7772 11.8538 12.2746 9.80937 12.2746ZM36.8859 33.4286H30.5127V24.375C30.5127 22.2161 30.4647 19.4391 27.2013 19.4391C23.8804 19.4391 23.3717 21.7895 23.3717 24.2183V33.4286H16.9984V14.8165H23.1125V17.3585H23.1989C24.0531 15.896 26.1359 14.3551 29.2362 14.3551C35.6862 14.3551 36.8859 18.2116 36.8859 23.2259V33.4286Z" fill="black"/>
</svg>
