<svg width="44" height="32" viewBox="0 0 44 32" fill="none" xmlns="http://www.w3.org/2000/svg">
<path d="M43.1664 10.5667C43.5016 10.3083 44 10.55 44 10.9583V28C44 30.2083 42.1523 32 39.875 32H4.125C1.84766 32 0 30.2083 0 28V10.9667C0 10.55 0.489844 10.3167 0.833594 10.575C2.75859 12.025 5.31094 13.8667 14.0766 20.0417C15.8898 21.325 18.9492 24.025 22 24.0083C25.068 24.0333 28.1875 21.275 29.932 20.0417C38.6977 13.8667 41.2414 12.0167 43.1664 10.5667ZM22 21.3333C23.9937 21.3667 26.8641 18.9 28.3078 17.8833C39.7117 9.85833 40.5797 9.15833 43.2094 7.15833C43.7078 6.78333 44 6.2 44 5.58333V4C44 1.79167 42.1523 0 39.875 0H4.125C1.84766 0 0 1.79167 0 4V5.58333C0 6.2 0.292187 6.775 0.790625 7.15833C3.42031 9.15 4.28828 9.85833 15.6922 17.8833C17.1359 18.9 20.0063 21.3667 22 21.3333Z" fill="black"/>
</svg>
