<svg width="41" height="39" viewBox="0 0 41 39" fill="none" xmlns="http://www.w3.org/2000/svg">
<path d="M36.6071 0H4.39286C3.2278 0 2.11046 0.440241 1.28664 1.22388C0.462818 2.00751 0 3.07035 0 4.17857L0 34.8214C0 35.9297 0.462818 36.9925 1.28664 37.7761C2.11046 38.5598 3.2278 39 4.39286 39H16.9537V25.7409H11.1881V19.5H16.9537V14.7434C16.9537 9.33301 20.3398 6.34446 25.5262 6.34446C28.01 6.34446 30.6072 6.7658 30.6072 6.7658V12.0761H27.7455C24.9258 12.0761 24.0463 13.7405 24.0463 15.4477V19.5H30.3409L29.3342 25.7409H24.0463V39H36.6071C37.7722 39 38.8895 38.5598 39.7134 37.7761C40.5372 36.9925 41 35.9297 41 34.8214V4.17857C41 3.07035 40.5372 2.00751 39.7134 1.22388C38.8895 0.440241 37.7722 0 36.6071 0Z" fill="black"/>
</svg>
