<svg width="55" height="3" viewBox="0 0 55 3" fill="none" xmlns="http://www.w3.org/2000/svg">
<path d="M13.1149 2.9997C12.6025 3.00873 12.0978 2.81175 11.652 2.42918C11.4481 2.23979 11.2519 2.03212 11.0641 1.80755C10.9768 1.70537 10.8869 1.60319 10.7828 1.50529C10.5804 1.24937 10.325 1.10894 10.0613 1.10894C9.79742 1.10894 9.54216 1.24914 9.33965 1.50505C9.2497 1.60295 9.16525 1.70513 9.07796 1.80731C8.93731 1.97341 8.79665 2.1395 8.64185 2.29277C8.15489 2.75256 7.59274 2.99658 7.01878 2.99658C6.44482 2.99658 5.88256 2.75278 5.39556 2.29301C5.2436 2.13974 5.11425 1.97792 4.96511 1.81182C4.87233 1.70109 4.77657 1.59036 4.6838 1.48391C4.48631 1.25152 4.24346 1.12534 3.99321 1.12534C3.74313 1.12534 3.5001 1.25152 3.30262 1.48391C3.19571 1.59464 3.09729 1.71392 2.99603 1.83297C2.89478 1.95226 2.71472 2.16089 2.56558 2.31416C1.79462 3.02345 0.857766 3.18836 0 2.76564L0.222286 1.72251C0.880682 2.04591 1.5992 1.91997 2.19133 1.37748C2.32633 1.24536 2.44737 1.09638 2.57107 0.951667C2.69477 0.806957 2.79335 0.687674 2.91141 0.564108C3.2315 0.204349 3.61988 0.00997542 4.01862 0.00997542C4.4172 0.00997542 4.80541 0.204349 5.12551 0.564108C5.23241 0.679115 5.33649 0.80268 5.43775 0.921726C5.539 1.04101 5.68531 1.21542 5.82031 1.34754C6.18907 1.68948 6.6131 1.87031 7.04539 1.87031C7.47789 1.87031 7.90188 1.68948 8.27064 1.34754C8.40847 1.21138 8.53233 1.06216 8.65603 0.921726C8.77973 0.781292 8.84174 0.700266 8.93734 0.593812C9.26418 0.208631 9.66667 0 10.0808 0C10.4951 0 10.8974 0.208869 11.2244 0.594049C11.3229 0.700503 11.4158 0.811234 11.5057 0.917688C11.6709 1.11753 11.8437 1.30216 12.0233 1.47111C12.6305 1.97367 13.3567 2.02572 13.9925 1.61154C14.274 1.39365 14.5407 1.13392 14.7886 0.836679L15.0024 0.598107C15.3313 0.214349 15.7349 0.00595444 16.1502 0.00595444C16.5655 0.00595444 16.9691 0.214349 17.298 0.598107L17.5793 0.908915C17.7341 1.09212 17.883 1.26226 18.0435 1.4198C18.3794 1.73774 18.7733 1.88696 19.1687 1.84585L19.194 2.94008C18.6516 2.98475 18.1138 2.77184 17.6553 2.33128C17.4696 2.14808 17.3008 1.95227 17.1405 1.76503L16.8845 1.47133C16.6782 1.22611 16.4236 1.09256 16.1614 1.09256C15.8992 1.09256 15.6446 1.22587 15.4385 1.4711L15.2304 1.70111C14.945 2.04186 14.6377 2.33862 14.3133 2.58675C13.9387 2.85645 13.5295 2.99756 13.1149 2.9997Z" fill="#BDB0EC"/>
<path d="M31.0179 2.9997C30.5055 3.00873 30.0008 2.81175 29.555 2.42918C29.3511 2.23979 29.1549 2.03212 28.9671 1.80755C28.8798 1.70537 28.7899 1.60319 28.6858 1.50529C28.4834 1.24937 28.228 1.10894 27.9643 1.10894C27.7004 1.10894 27.4452 1.24914 27.2426 1.50505C27.1527 1.60295 27.0682 1.70513 26.981 1.80731C26.8403 1.97341 26.6996 2.1395 26.5448 2.29277C26.0579 2.75256 25.4957 2.99658 24.9218 2.99658C24.3478 2.99658 23.7855 2.75278 23.2986 2.29301C23.1466 2.13974 23.0172 1.97792 22.8681 1.81182C22.7753 1.70109 22.6796 1.59036 22.5868 1.48391C22.3893 1.25152 22.1464 1.12534 21.8962 1.12534C21.6461 1.12534 21.4031 1.25152 21.2056 1.48391C21.0987 1.59464 21.0003 1.71392 20.899 1.83297C20.7978 1.95226 20.6177 2.16089 20.4686 2.31416C19.6976 3.02345 18.7693 3.27813 17.903 2.40396L18.0474 1.48391C18.7693 1.96688 19.5022 1.91997 20.0943 1.37748C20.2293 1.24536 20.3504 1.09638 20.4741 0.951667C20.5978 0.806957 20.6963 0.687674 20.8144 0.564108C21.1345 0.204349 21.5229 0.00997542 21.9216 0.00997542C22.3202 0.00997542 22.7084 0.204349 23.0285 0.564108C23.1354 0.679115 23.2395 0.80268 23.3407 0.921726C23.442 1.04101 23.5883 1.21542 23.7233 1.34754C24.0921 1.68948 24.5161 1.87031 24.9484 1.87031C25.3809 1.87031 25.8049 1.68948 26.1736 1.34754C26.3115 1.21138 26.4353 1.06216 26.559 0.921726C26.6827 0.781292 26.7447 0.700266 26.8403 0.593812C27.1672 0.208631 27.5697 0 27.9838 0C28.3981 0 28.8004 0.208869 29.1274 0.594049C29.2258 0.700503 29.3188 0.811234 29.4087 0.917688C29.5739 1.11753 29.7467 1.30216 29.9263 1.47111C30.5335 1.97367 31.2597 2.02572 31.8955 1.61154C32.177 1.39365 32.4437 1.13392 32.6916 0.836679L32.9054 0.598107C33.2343 0.214349 33.6379 0.00595444 34.0532 0.00595444C34.4685 0.00595444 34.8721 0.214349 35.201 0.598107L35.4823 0.908915C35.6371 1.09212 35.786 1.26226 35.9465 1.4198C36.2824 1.73774 36.6763 1.88696 37.0717 1.84585L37.097 2.94008C36.5546 2.98475 36.0168 2.77184 35.5583 2.33128C35.3726 2.14808 35.2038 1.95227 35.0435 1.76503L34.7875 1.47133C34.5812 1.22611 34.3265 1.09256 34.0644 1.09256C33.8022 1.09256 33.5476 1.22587 33.3415 1.4711L33.1333 1.70111C32.8479 2.04186 32.5407 2.33862 32.2163 2.58675C31.8417 2.85645 31.4325 2.99756 31.0179 2.9997Z" fill="#BDB0EC"/>
<path d="M48.9209 2.9997C48.4085 3.00873 47.9038 2.81175 47.458 2.42918C47.2541 2.23979 47.0579 2.03212 46.8701 1.80755C46.7828 1.70537 46.6929 1.60319 46.5888 1.50529C46.3864 1.24937 46.131 1.10894 45.8673 1.10894C45.6034 1.10894 45.3481 1.24914 45.1456 1.50505C45.0557 1.60295 44.9712 1.70513 44.8839 1.80731C44.7433 1.97341 44.6026 2.1395 44.4478 2.29277C43.9609 2.75256 43.3987 2.99658 42.8248 2.99658C42.2508 2.99658 41.6885 2.75278 41.2015 2.29301C41.0496 2.13974 40.9202 1.97792 40.7711 1.81182C40.6783 1.70109 40.5826 1.59036 40.4898 1.48391C40.2923 1.25152 40.0494 1.12534 39.7992 1.12534C39.5491 1.12534 39.3061 1.25152 39.1086 1.48391C39.0017 1.59464 38.9033 1.71392 38.802 1.83297C38.7008 1.95226 38.5207 2.16089 38.3716 2.31416C37.6006 3.02345 36.6723 3.27813 35.806 2.40396L35.9504 1.48391C36.6723 1.96688 37.4052 1.91997 37.9973 1.37748C38.1323 1.24536 38.2534 1.09638 38.3771 0.951667C38.5008 0.806957 38.5993 0.687674 38.7174 0.564108C39.0375 0.204349 39.4259 0.00997542 39.8246 0.00997542C40.2232 0.00997542 40.6114 0.204349 40.9315 0.564108C41.0384 0.679115 41.1425 0.80268 41.2437 0.921726C41.345 1.04101 41.4913 1.21542 41.6263 1.34754C41.9951 1.68948 42.4191 1.87031 42.8514 1.87031C43.2839 1.87031 43.7079 1.68948 44.0766 1.34754C44.2145 1.21138 44.3383 1.06216 44.462 0.921726C44.5857 0.781292 44.6477 0.700266 44.7433 0.593812C45.0702 0.208631 45.4727 0 45.8868 0C46.3011 0 46.7034 0.208869 47.0304 0.594049C47.1288 0.700503 47.2218 0.811234 47.3117 0.917688C47.4769 1.11753 47.6497 1.30216 47.8293 1.47111C48.4365 1.97367 49.1627 2.02572 49.7985 1.61154C50.08 1.39365 50.3467 1.13392 50.5946 0.836679L50.8084 0.598107C51.1373 0.214349 51.5409 0.00595444 51.9562 0.00595444C52.3714 0.00595444 52.7751 0.214349 53.104 0.598107L53.3853 0.908915C53.5401 1.09212 53.689 1.26226 53.8495 1.4198C54.1854 1.73774 54.5793 1.88696 54.9747 1.84585L55 2.94008C54.4576 2.98475 53.9198 2.77184 53.4613 2.33128C53.2755 2.14808 53.1068 1.95227 52.9465 1.76503L52.6904 1.47133C52.4842 1.22611 52.2295 1.09256 51.9674 1.09256C51.7052 1.09256 51.4506 1.22587 51.2445 1.4711L51.0363 1.70111C50.7509 2.04186 50.4437 2.33862 50.1193 2.58675C49.7447 2.85645 49.3355 2.99756 48.9209 2.9997Z" fill="#BDB0EC"/>
</svg>
